<?xml version="1.0" encoding="UTF-8"?>
<svg xmlns="http://www.w3.org/2000/svg" viewBox="0 0 714 240" width="714" height="240">
<path d="M278.31 28.54C277.99 30.64 276.93 32.55 276.29 34.59C274.77 39.42 273.37 44.42 272.19 49.34C267.88 67.45 264.21 85.74 260.23 103.9C257.84 114.79 255.6 126.02 254.16 137.09C253.55 141.72 252.57 146.38 252.1 151C251.95 152.55 252.22 154.03 251.76 155.54C249.15 156.46 246.27 155.72 243.58 155.49C240.22 155.2 236.76 155.42 233.4 155.65C231.19 155.8 228.77 156.44 227.41 154.4C227.9 152.37 230.6 149.24 229.75 147.22C228.31 147.65 225.7 150.69 224.15 151.77C220.04 154.63 215.56 156.97 210.55 157.8C207.08 158.38 203.09 158.21 199.78 157.17C182.17 151.67 176.73 135.41 178.35 118.12C180.49 95.37 194.76 72.04 219.79 71.94C224.43 71.92 229.06 72.41 233.18 74.66C236.97 76.72 239.68 79.29 242.47 82.52C244.04 81.4 244.92 72.64 245.43 70.18C247.51 60.28 248.84 50.26 250.74 40.33C251.27 37.6 251.45 30.01 252.3 28.34C256.21 27.21 266.84 28.14 271.58 28.11C273.68 28.1 276.44 27.53 278.31 28.54ZM685.84 28.51C685.88 32.98 683.37 38.89 682.2 43.27C679.31 54.17 676.87 65.18 674.3 76.16C669.91 94.94 666.88 114.08 663.15 133C662.35 137.06 661.5 141.23 661.05 145.33C660.72 148.35 660.75 152.73 659.76 155.47C657.27 156.6 653.9 155.71 651.26 155.54C646.7 155.25 636.6 156.73 633.09 155.54C632.8 152.49 635.79 145.12 636.71 141.77C639.38 132.07 641.28 122.23 643.68 112.44C645.87 103.51 647.45 94.39 649.17 85.37C651.25 74.47 653.85 63.7 655.73 52.72C656.58 47.72 657.54 42.65 658.01 37.61C658.26 34.97 657.99 30.88 658.77 28.54C660.45 27.45 663.45 28 665.43 28.05C670.09 28.15 674.75 28.11 679.42 28.09C681.45 28.08 684.05 27.51 685.84 28.51ZM632.22 30.02C635.41 29.68 638.48 29.68 641.34 31.26C643.57 32.5 645.14 34.41 646.19 36.64C646.69 37.71 647.48 38.73 647.77 39.9C649.55 47.24 643.9 54.35 636.88 55.74C634.81 56.16 633 55.75 631.03 55.17C618.16 51.35 619.5 31.37 632.22 30.02ZM531.64 45.17C533.01 47.99 531.16 51.83 530.28 54.62C528.42 60.52 526.87 67.33 526.45 73.52C530.15 75.62 536.87 72.55 540.77 73.89C540.32 77.67 539.87 81.45 539.42 85.23C537.87 86.33 536.27 85.46 534.55 85.21C531.6 84.79 527.35 84.28 524.44 84.9C522.03 88.15 521.6 95.16 520.76 99.19C519.1 107.11 517.42 115.02 515.8 122.95C515.26 125.63 514.39 128.25 514.02 130.97C513.41 135.48 511.43 141.45 514.13 145.63C516.79 149.74 522.07 147.49 525.9 148.36C526.12 149.25 525.79 149.75 525.79 150.62C525.79 151.8 526.2 152.75 525.69 153.96C524.43 156.93 518.16 157.81 515.37 157.97C506.66 158.46 496.23 156.78 492.24 147.89C488.59 139.78 490.71 131.51 492.7 123.26C494.87 114.31 496.63 105.28 498.3 96.22C498.93 92.82 500.24 89.04 500.25 85.58C497.17 83.34 491.26 86.65 488.52 85.61C488.12 83.85 489.27 82.7 489.72 80.99C490.33 78.63 489.77 75.91 491.18 73.84C494.71 73.84 498.24 73.84 501.77 73.84C503.49 69.35 503.89 64.31 504.74 59.6C504.95 58.45 504.81 57.15 505.28 56.07C506.25 53.89 509.48 53.53 511.48 52.77C515.5 51.24 519.72 49.83 523.59 47.88C525.87 46.72 529 44.83 531.64 45.17ZM307.58 72C314.43 71.64 320.94 72.11 327.5 74.11C348.19 80.42 353.73 104.32 347.68 122.99C340.88 143.98 317.54 161.02 295.13 157.82C289.65 157.04 284.68 155.21 279.75 152.85C265.48 146.04 261.01 128.6 263.65 114.21C264.84 107.74 266.9 101.47 270.2 95.77C277.17 83.73 293.71 72.72 307.58 72ZM438.11 119.25C437.04 121.97 437.33 125.13 437.53 127.99C438.15 137.04 442.09 145.81 451.87 147.81C455.23 148.5 459.07 148.31 462.46 148.05C464.95 147.86 467.63 146.92 469.79 145.67C471.72 144.55 473.31 142.35 475.69 143.37C477.18 146.08 475.43 147.71 474.07 149.94C473.29 151.22 472.56 152.75 471.47 153.8C468.03 157.12 457.22 158.06 452.63 158C446.61 157.91 440.66 157 435.08 154.75C416.05 147.07 409.05 128.59 413.75 109.34C414.86 104.79 416.08 100.2 418.25 96.01C423.41 86.08 431.02 78.48 441.46 74.28C446.1 72.41 451.04 71.89 456.03 71.86C470.45 71.76 482.6 77.32 487.73 91.53C488.88 94.74 489.15 98.48 489.39 101.87C489.68 106.08 489.17 110.57 488.23 114.65C487.94 115.88 488.31 117.66 487.32 118.62C486.42 119.48 484.75 119.18 483.62 119.19C480.47 119.2 477.32 119.23 474.17 119.17C465.49 119.02 456.78 118.72 448.09 118.93C444.97 119 441.06 118.3 438.11 119.25ZM597.39 148.61C597.77 150.46 598.15 152.3 598.53 154.15C602.15 146.93 603.46 138.43 605.18 130.6C607.81 118.66 610.73 106.8 612.85 94.75C613.62 90.38 614.28 85.95 614.75 81.53C615.01 79.16 614.62 76.49 615.49 74.27C619.85 72.94 626.75 74.11 631.41 74.08C634.99 74.05 639.3 73.24 642.75 74.17C643.11 75.93 641.66 78.21 641.19 80.03C639.89 85.04 638.57 90.06 637.23 95.06C633.43 109.24 631.19 123.83 628.33 138.21C627.5 142.4 627.24 146.72 626.54 150.93C626.25 152.65 626.69 153.96 625.79 155.54C622.77 156.51 619.06 155.56 615.91 155.48C610.66 155.35 604.83 156.63 599.66 155.84C598.83 155.71 598.2 155.26 597.39 155.1C590.33 158.43 582.59 159.82 576.03 154.79C574.43 153.57 572.28 151.46 571.32 149.69C570.84 148.83 570.87 148.22 570.05 147.6C567.95 147.58 566.68 149.45 565.2 150.75C563.01 152.67 560.39 154.57 557.74 155.79C547.72 160.4 533.35 157.53 527.07 147.83C526.12 146.37 525.63 144.19 525.2 142.53C524.47 139.73 524.2 136.87 524.28 133.99C524.8 116.78 538.31 110.13 553 107.17C558.02 106.15 563.19 106.24 568.21 105.31C570.26 104.93 572.33 105.01 574.09 103.69C576.11 102.2 576.04 99.2 575.96 96.95C575.71 89.21 568.74 84.03 561.49 84.03C557.21 84.04 553.06 85.19 549.33 87.25C547.31 88.36 545.31 91.01 542.97 90.53C543.16 88.28 543.55 80.87 544.93 79.45C547.94 76.34 553.9 74.83 557.97 73.92C560.27 73.4 562.53 72.63 564.9 72.28C575.04 70.79 591.75 71.3 597.79 81.22C601.69 87.61 600.47 94.92 599.13 101.87C597.27 111.48 595.42 121.13 593.17 130.65C592.25 134.54 588.99 144.96 592.98 147.66C594.2 148.48 596 148.36 597.39 148.61ZM374.78 74.27C375.83 78.72 374.83 84.04 374.99 88.64C375.06 90.46 375.57 92.13 375.77 93.93C376.43 99.65 377.21 105.41 377.79 111.13C378.06 113.79 378.05 116.51 378.51 119.15C378.81 120.87 379.49 122.51 379.79 124.18C380.13 126.07 379.7 127.97 380.43 129.77C382.51 128.97 383.13 126.11 384.08 124.23C385.57 121.3 387.6 118.6 389.15 115.68C393.93 106.62 399.36 97.96 403.73 88.67C405.26 85.42 407.94 76.82 409.98 74.53C410.87 73.54 412.49 73.76 413.7 73.83C416.26 73.98 424.7 73.35 426.12 74.65C425.55 76.8 423.46 78.84 422.22 80.73C419.5 84.85 416.82 88.96 414.25 93.17C405.66 107.23 397.2 121.4 389.22 135.8C386.52 140.66 383.76 145.53 381.25 150.5C380.39 152.18 379.48 155.2 377.47 155.85C375.69 156.43 373.84 155.47 372.12 155.27C369.13 154.91 365.99 155.19 363.04 155.7C361.86 155.9 360.09 156.15 359.4 154.85C358.8 153.72 359.38 151.89 359.2 150.61C358.98 149.09 358.44 147.62 358.25 146.09C357.88 143.24 358.08 140.32 357.78 137.46C356.72 127.22 355.52 116.98 354.19 106.78C353.76 103.46 353.53 100.03 352.84 96.76C351.65 91.15 350.59 85.31 349.86 79.61C349.63 77.87 348.38 76.02 348.84 74.27C350.7 73.28 353.78 73.94 355.87 73.99C360.28 74.1 371.29 73.09 374.78 74.27ZM310.2 81.42C303.11 82.18 298.33 88.81 295.79 94.93C292.25 103.45 289.85 112.17 288.2 121.28C287.67 124.19 287.76 127.35 287.41 130.29C287.29 131.32 287.61 132.23 287.72 133.24C288.4 139.14 290.31 146.06 296.91 147.83C306.1 150.31 310.77 145.06 315.2 138.11C322.25 127.01 325.4 109.19 325.12 96.2C324.95 87.9 318.98 80.48 310.2 81.42ZM463.59 108.81C464.91 106.89 464.83 104.83 465.33 102.63C466.96 95.46 468.09 82.1 457.92 81.33C447.24 80.52 442.61 92.26 440.88 100.84C440.39 103.27 439.06 106.27 439.78 108.71C441.66 109.58 444.85 109 446.96 108.97C451.48 108.91 459.54 109.77 463.59 108.81ZM222.54 85.97C217.84 86.79 214.16 90.95 211.73 94.76C206.72 102.63 203.82 111.81 203.04 121.14C202.89 122.91 203.09 124.66 202.96 126.43C202.54 132.08 205.64 142.74 212.25 143.95C229.34 147.11 235.08 122.16 236.86 109.78C237.32 106.59 237.71 103.21 237.63 99.98C237.38 90.69 232.53 84.23 222.54 85.97ZM572.58 113.58C569.14 113.89 565.37 113.94 562.1 115.13C554.82 117.78 550.54 124.61 549.79 132.03C549.34 136.5 549.34 142.64 554.2 144.88C566.76 150.67 569.53 131.33 571.39 123.76C571.92 121.59 573.64 115.28 572.58 113.58ZM417.1 163.28C417.19 164.59 415.99 171.72 415.63 173.2C415.16 175.07 414.05 177.11 414.45 178.96C416.18 179.16 417.47 177.91 419.06 177.36C422.01 176.32 427.14 176.42 428.93 179.42C432.03 184.61 428.85 192.77 427.99 198.28C427.62 200.71 427.18 205.07 423.52 203.23C422.67 200.13 426.04 190.19 426.02 185.78C426 182.72 425.34 179.54 421.58 179.34C411.77 178.82 413.1 190.36 411.48 196.63C410.74 199.51 411.75 204.24 407.27 203.48C405.88 201.2 407.81 197.39 407.98 194.85C408.2 191.69 409.11 188.82 409.59 185.71C410.53 179.64 411.31 173.58 412.2 167.49C412.56 165.01 413.84 160.1 417.1 163.28ZM498.74 164.39C496.36 177.19 493.98 189.99 491.6 202.79C490.27 203.37 489.6 203.89 488.16 203.54C487 200.17 488.91 195.4 489.68 192.04C491.1 185.82 492.27 179.26 492.97 172.92C493.19 171.01 494.13 163.76 495.14 162.72C496.72 162.36 498.22 162.76 498.74 164.39ZM180.56 166.04C183.45 164.81 186.21 167.94 183.57 170.15C180.82 172.47 177.67 167.27 180.56 166.04ZM559.6 170.81C558.07 169.7 557.57 168.32 558.19 166.5C563 163.52 565.34 170.69 559.6 170.81ZM220.55 171.37C222.35 173.42 219.5 175.22 220.83 177.46C222.55 178.07 223.96 176.68 225.07 178.59C223.5 180.05 221.37 178.77 220.06 180.18C217.91 182.48 217.3 191.61 217.05 194.85C216.93 196.33 216.62 198.27 217.54 199.56C219.04 201.69 221.57 200.61 223.57 201.46C222.14 205.55 214.51 204.05 213.05 199.87C212.12 197.21 213.27 194.26 213.76 191.69C214.15 189.64 214.01 187.47 214.32 185.4C214.57 183.68 215.23 182.27 215.23 180.48C214.04 179.66 212.92 180.04 212.35 178.59C213.26 177.95 214.8 177.72 215.49 176.74C217.39 174.06 214.58 172.06 220.55 171.37ZM353.69 172.55C353.16 174.38 351.72 175.83 353.22 177.52C355.04 177.36 356.37 176.81 357.47 178.59C355.82 180.36 354.51 179.21 352.46 179.26C350.61 183.88 350.18 188.77 349.5 193.66C349.22 195.65 348.68 198.27 350.26 199.91C351.61 201.31 353.87 200.75 355.53 201.27C354.53 205.51 346.71 204.46 345.38 199.82C343.93 194.77 347.36 185.83 347.45 180.48C346.39 179.85 345.34 179.22 344.29 178.59C345.45 177.96 346.62 177.33 347.78 176.7C348.26 174.19 348.53 172.3 351.32 171.88C352.43 171.71 352.86 171.77 353.69 172.55ZM327.06 172.17C327.5 173.81 326.2 175.05 326.08 176.7C327.56 178.63 330.43 176.56 330.65 179.35C329.27 180.47 327.89 179.83 326.31 179.73C325.02 181.07 325.34 182.47 324.92 184.17C324.18 187.08 321.98 197.19 323.63 199.67C325.1 201.85 327.54 200.18 329.41 201.11C329.21 204.84 321.04 205.31 319.3 200.19C317.27 194.26 321.02 187.17 320.97 181.24C319.69 180.19 317.82 179.87 318.45 177.81C319.45 177.53 320.46 177.26 321.47 176.98C322.43 173.72 322.38 170.65 327.06 172.17ZM314.83 190.69C313.53 190.86 312.87 190.28 311.64 190.11C308.54 189.68 300.74 189.57 298.04 190.97C295.43 195.43 301.18 202.28 306.35 201.82C308.71 201.61 310.78 199.29 312.97 199.38C313.27 203.32 304.76 204.55 301.82 203.79C294.11 201.8 291.51 192.06 294.32 185.28C296.91 179.03 303.72 174.73 310.52 177.2C315.42 178.98 318.39 186.9 314.83 190.69ZM450.54 203.16C449.73 201.56 450.51 199.91 450.81 198.23C451.53 194.22 452.37 190.23 452.78 186.15C453.05 183.47 452.53 180.3 449.5 179.69C447.29 179.25 443.87 179.42 442.17 181.18C440.52 182.89 440.26 185.65 439.76 187.83C439.25 190.04 438.6 192.31 438.22 194.53C437.77 197.22 437.76 200.19 437.02 202.79C435.72 203.57 434.31 203.58 432.97 202.87C432.67 200.9 433.56 199.05 433.88 197.12C434.64 192.43 435.58 187.77 436.5 183.11C436.89 181.13 436.25 178.15 438.27 177.03C439.78 177.18 440.3 178.41 441.67 178.97C445.79 177.75 453.35 174.04 455.93 180.03C457.87 184.51 455.37 194.71 454.72 199.76C454.45 201.89 452.94 204.39 450.54 203.16ZM472.73 176.68C481.13 176.26 486.35 183.03 484.74 191.2C483.2 198.99 475.18 205.82 466.94 203.85C460.03 202.2 457.49 194.33 459.25 188.06C461.01 181.81 466.16 177 472.73 176.68ZM553.15 177.46C552.79 178.93 551.26 180.02 549.67 179.73C549.49 181.93 550.26 184.23 549.8 186.43C548.87 190.83 544.58 193.5 540.32 193.87C537.92 194.07 535.35 193.57 533.02 194.17C533.02 195.03 533.02 195.88 533.02 196.74C536.8 199.3 551.66 195.01 549.13 204.67C548.83 205.81 548.45 206.83 547.85 207.86C544.75 213.21 537.57 215.08 531.98 213.22C530.26 212.65 527.98 211.91 527.12 210.13C524.75 205.24 529.6 203.43 530.69 199.38C529.34 196.5 529.86 195.22 531.53 192.58C529.76 188.04 528.65 185.07 531.67 180.73C532.79 179.13 534.21 177.78 536.13 177.19C539.1 176.27 542.23 177.02 545.23 177.06C547.43 177.09 551.42 176.4 553.15 177.46ZM586.43 189.97C583.03 191.45 573.03 189.08 568.67 190.44C567.92 191.6 568 192.74 568.13 194.09C568.64 199.29 573.19 202.73 578.4 201.67C580.47 201.25 581.84 199.2 583.79 199.29C584.6 203.25 576.69 204.14 574.02 203.94C566.1 203.33 561.92 194.26 564.2 187.2C565.58 182.95 569.1 178.12 573.67 177.04C580.6 175.41 587.21 178.95 586.81 186.56C586.75 187.75 586.88 188.87 586.43 189.97ZM205.81 202.75C204.48 203.25 203.37 203.34 202.07 202.79C201.35 199.31 204.3 190.37 204.71 186.11C204.99 183.26 204.13 180.23 201.06 179.73C188.21 177.65 192 195.67 188.84 202.79C187.43 203.28 186.05 203.3 184.64 202.84C184.45 200.97 185.52 198.96 185.86 197.1C186.72 192.51 187.63 187.76 188.08 183.11C188.31 180.83 188.38 178.11 190.69 177.11C191.57 177.68 192.45 178.24 193.34 178.81C198.36 178.27 200.87 175 206.37 178.23C207.78 179.06 208.87 181.96 208.88 183.51C208.92 187.9 207.3 193.53 206.44 197.89C206.12 199.53 206.39 201.19 205.81 202.75ZM247.76 190.25C245.77 190.89 244.47 190.28 242.47 190.13C238.94 189.87 233.69 189.5 230.38 190.81C227.38 196.07 234.01 202.84 239.33 201.67C241.4 201.22 244.24 198.51 245.79 199.38C244.29 204.29 235.6 204.89 231.73 202.75C225.2 199.14 223.91 190.17 227.13 183.87C229.98 178.27 236.77 175.28 242.87 177.18C248.04 178.8 250.28 185.63 247.76 190.25ZM256.46 176.94C257.71 177.81 257.62 179.03 258.35 180.25C260.96 180.09 262.04 177.06 264.85 177.08C266.14 178.06 266.37 179.57 265.91 181.06C263.17 182.24 260.09 181.41 258.23 184.35C256.09 187.73 255.55 194.62 254.99 198.6C254.62 201.2 254.62 204.35 251.02 203.16C250.21 201.54 251.34 199.24 251.65 197.48C252.52 192.58 253.16 187.69 254.12 182.78C254.54 180.64 253.68 177.41 256.46 176.94ZM274.6 179.62C276.29 178.61 278.3 177.31 280.29 177.02C281.56 176.84 282.77 176.86 284.05 176.98C292.98 177.81 289.25 189.45 288.21 195.02C287.82 197.1 288.07 199.47 287.46 201.49C286.88 203.37 284.89 203.61 283.29 203.01C282.5 199.65 285.71 190.13 285.81 185.78C285.87 182.98 285.09 179.89 281.78 179.49C269.66 178.04 273.14 196.38 269.69 202.97C268.18 203.59 267.31 203.85 266.29 202.47C267.07 196.12 268.11 189.46 269.66 183.27C270.16 181.29 269.63 179.13 270.82 177.36C272.74 176.67 273.36 178.47 274.6 179.62ZM381.57 189.97C379.9 190.87 377.76 190.27 375.9 190.19C371.9 190.03 366.03 189.12 362.54 191.45C361.96 196.82 366.03 203.17 372.09 201.72C374.12 201.24 376.51 198.34 378.45 199.38C376.47 204.02 368.32 205.18 364.28 202.86C358.87 199.74 356.4 193.11 358.17 187.14C360.12 180.54 365.64 176.41 372.5 176.84C374.43 176.96 376.2 177.26 377.84 178.36C381.05 180.51 381.88 186.64 381.57 189.97ZM405.53 178.59C405.7 179.87 405.53 181.01 404.63 182C402.72 181.79 401.63 180.1 399.99 179.25C398.42 178.43 395.27 178.92 393.69 179.57C386.35 182.61 384.18 196.92 391.69 200.81C393.98 202 396.79 201.99 399.1 200.85C400.75 200.04 401.41 198.53 403.49 198.68C403.72 202.98 396.7 204.04 393.56 203.91C387.37 203.66 382.96 198.55 382.68 192.51C382.25 182.96 389.2 176.26 398.58 176.82C400.98 176.96 403.69 176.87 405.53 178.59ZM509.74 177.03C512.16 176.64 515.7 176.32 518.05 177.19C531.09 182.01 524.16 202.58 512.26 203.94C493.63 206.07 496.72 179.15 509.74 177.03ZM604.83 178.59C604.68 179.77 604.46 180.29 603.44 180.92C600.52 179.79 594 177.55 593.88 183.13C593.76 188.83 602.59 187.82 603.63 193.34C604.5 197.92 599.24 203.16 594.99 203.93C592.72 204.34 590.33 203.55 588.32 202.6C587.66 201.39 587.21 200.2 588.03 199.01C590.14 198.95 591.26 201.68 593.61 201.88C597.26 202.18 601.31 198.43 599.68 194.61C597.86 190.34 589.48 191.8 590.44 183.9C590.56 182.95 591.27 182.24 591.73 181.46C593.97 177.66 596.02 176.98 600.4 177.07C602.28 177.11 603.59 177.07 604.83 178.59ZM182.43 177.84C183.19 179.52 182.09 182.39 181.8 184.26C181.31 187.42 180.35 190.55 180.04 193.72C179.81 196.13 179.83 200.45 178.97 202.56C177.58 203.39 175.94 203.49 174.44 202.84C174.16 200.71 175.24 198.08 175.7 195.97C176.5 192.28 177.14 188.44 177.81 184.73C178.19 182.57 177.64 179.37 178.97 177.61C180.2 177.03 181.27 177.09 182.43 177.84ZM560.73 177.35C559.47 185.81 558.21 194.27 556.95 202.73C555.68 203.25 554.61 203.51 553.28 203.16C552.33 201.23 553.63 199.15 553.89 197.14C554.36 193.54 555.43 190.01 555.83 186.42C556.11 183.92 555.66 180.64 556.92 178.35C557.65 177.03 559.53 177.11 560.73 177.35ZM243.91 187.67C244.18 186.51 244.18 185.44 244.09 184.26C243.78 180.49 240.39 177.8 236.51 179.27C233.36 180.47 230.49 184.33 230.23 187.67C232.55 188.62 241.74 188.81 243.91 187.67ZM311.64 187.57C312.94 183.55 310.81 178.49 305.97 178.78C301.98 179.03 298.21 183.86 298.04 187.67C299.67 188.77 309.6 188.5 311.64 187.57ZM472.69 178.94C462.53 179.6 459.15 200.34 469.66 201.72C480.82 203.18 485.81 178.08 472.69 178.94ZM513.5 178.97C506.39 178.99 503.87 185.82 503.46 191.82C503.16 196.23 504.67 201.09 509.71 201.78C520.79 203.31 525.56 178.94 513.5 178.97ZM540.4 178.97C533.58 179.1 530.67 190.05 537.46 191.82C545.97 194.04 548.84 178.8 540.4 178.97ZM582.65 186.93C582.79 185.92 582.61 184.9 582.44 183.89C580.77 174.16 567.98 180.3 569.04 187.67C571.35 188.83 580.87 188.86 582.65 186.93ZM376.65 187.52C377.44 185.87 376.93 184.54 376.29 182.94C374 177.18 367.76 177.99 364.78 182.78C363.81 184.34 362.71 185.83 363.4 187.67C365.57 188.75 374.45 188.63 376.65 187.52ZM623.61 183.89C625.97 184.57 624.48 186.73 624.13 188.44C623.5 191.55 621.57 198.87 622.14 201.65C623.96 202.51 626.72 201.34 628.07 202.79C626.35 204.79 621.4 203.92 619.32 202.71C619.16 198.15 621.44 193.56 621.97 189.05C622.16 187.52 622.1 184.74 623.61 183.89ZM635.57 183.97C636.48 185.62 635.64 187.4 635.26 189.13C634.68 191.8 632.9 199.37 633.3 201.69C635.52 201.93 637.75 202.17 639.97 202.41C638.23 204.66 632.02 203.88 629.9 202.48C632.05 200.29 632.72 192.48 633.12 189.18C633.35 187.25 633.5 184.46 635.57 183.97ZM658.54 185.4C657.12 186.65 654.12 185.65 652.2 185.73C647.45 185.92 645.07 189.12 644.38 193.71C643.95 196.56 645.63 201.16 648.68 202C651.28 202.72 653.84 201.69 656.36 201.55C655.41 203.89 650.91 204.04 648.79 203.34C644.52 201.92 641.76 198.93 642.12 194.09C642.58 187.9 647.02 184.15 652.96 184.02C655.09 183.97 657.05 183.7 658.54 185.4ZM609.49 199.91C611.18 201.76 606.61 207.6 604.58 207.94C604.59 207.01 607.41 200.88 608.24 200.24C608.63 199.94 609.03 199.99 609.49 199.91ZM535.87 201.25C532.68 201.65 528.43 204.9 530.15 208.62C531.89 212.39 538.21 212.45 541.34 210.76C543.53 209.57 546.59 205.61 544.73 203.1C543.02 200.8 538.33 200.95 535.87 201.25Z" fill="#ffffff" fill-rule="evenodd" stroke="#ffffff" stroke-width="0.25" stroke-linejoin="round"/>
<path d="M141.93 42.42C145.31 44.11 148.16 48.68 150.27 51.76C156.75 61.25 160.95 71.61 164.13 82.54C174.74 119.04 156.68 165.31 124.78 185.81C116.31 191.26 107.52 194.11 97.89 196.73C94.32 197.71 90.43 197.91 86.75 198.05C72.7 198.59 59.9 195.07 47.75 188.29C43.69 186.03 40.09 183.27 36.72 180.06C35.57 178.97 33.63 177.69 33.45 176.14C37.28 177.7 40.52 180.83 44.18 182.79C52.07 187.02 60.26 190.28 69.28 191.05C76.09 191.63 82.8 191.2 89.54 190.31C91.23 190.08 93.02 190.14 94.67 189.71C133.52 179.7 158.86 140.29 160.01 101.49C160.44 87.13 157.17 72.92 151.72 59.76C149.92 55.42 147.28 51.35 144.84 47.37C143.83 45.74 142.26 44.25 141.93 42.42ZM120.61 60.29C121.2 62.94 119.81 66.8 119.2 69.44C118 74.59 116.82 80.01 116.04 85.23C115.05 91.82 113.59 98.36 112.23 104.89C109.94 115.84 108.05 127.01 106.04 138.01C104.84 144.55 103.62 151.01 102.18 157.49C101.65 159.85 101.94 162.65 100.73 164.79C97.3 164.1 92.66 160.12 89.5 158.25C80.67 153.05 72.06 147.45 63.27 142.17C60.54 140.53 57.89 138.58 55.06 137.12C53.84 136.48 51.46 135.8 51 134.36C50.43 132.6 51.35 130.4 51.76 128.7C52.61 125.22 53.18 121.66 53.8 118.14C55.6 107.89 57.75 97.71 59.78 87.5C60.69 82.97 60.96 77.89 62.4 73.52C64.88 71.74 73.1 70.49 76.43 69.76C86.49 67.58 96.43 65.05 106.49 62.89C109.45 62.26 118.22 59.58 120.61 60.29Z" fill="#eb8b37" fill-rule="evenodd" stroke="#eb8b37" stroke-width="0.25" stroke-linejoin="round"/>
</svg>