<svg xmlns="http://www.w3.org/2000/svg" viewBox="0 0 800 450" width="800" height="450" role="img" aria-label="Placeholder artwork: a maze grid with a solved path running through it">
  <rect width="800" height="450" fill="#0e0e11"/>
  <g fill="none" stroke="#f2f1ec" stroke-opacity="0.07" stroke-width="1">
    <path d="M160 75h480M160 125h480M160 175h480M160 225h480M160 275h480M160 325h480M160 375h480"/>
    <path d="M160 75v300M220 75v300M280 75v300M340 75v300M400 75v300M460 75v300M520 75v300M580 75v300M640 75v300"/>
  </g>
  <g fill="#f2f1ec" fill-opacity="0.09">
    <rect x="220" y="125" width="60" height="50"/>
    <rect x="340" y="75" width="60" height="100"/>
    <rect x="460" y="175" width="60" height="100"/>
    <rect x="280" y="275" width="60" height="50"/>
    <rect x="520" y="325" width="60" height="50"/>
  </g>
  <g fill="#f8d488" fill-opacity="0.5">
    <rect x="160" y="75" width="60" height="50"/>
    <rect x="160" y="125" width="60" height="50"/>
    <rect x="160" y="175" width="60" height="50"/>
    <rect x="220" y="175" width="60" height="50"/>
    <rect x="280" y="175" width="60" height="50"/>
    <rect x="280" y="225" width="60" height="50"/>
    <rect x="340" y="225" width="60" height="50"/>
    <rect x="400" y="225" width="60" height="50"/>
    <rect x="400" y="275" width="60" height="50"/>
    <rect x="400" y="325" width="60" height="50"/>
    <rect x="460" y="325" width="60" height="50"/>
  </g>
  <rect x="160" y="75" width="60" height="50" fill="#f8d488"/>
  <rect x="580" y="325" width="60" height="50" fill="#fff3d0"/>
  <text x="40" y="425" fill="#f2f1ec" fill-opacity="0.32" font-family="'JetBrains Mono',ui-monospace,monospace" font-size="19">pathfinder.viz</text>
</svg>
